<?xml version="1.0" encoding="UTF-8" standalone="no"?>
<!-- Created with Inkscape (http://www.inkscape.org/) -->
<svg
   xmlns:dc="http://purl.org/dc/elements/1.1/"
   xmlns:cc="http://creativecommons.org/ns#"
   xmlns:rdf="http://www.w3.org/1999/02/22-rdf-syntax-ns#"
   xmlns:svg="http://www.w3.org/2000/svg"
   xmlns="http://www.w3.org/2000/svg"
   xmlns:sodipodi="http://sodipodi.sourceforge.net/DTD/sodipodi-0.dtd"
   xmlns:inkscape="http://www.inkscape.org/namespaces/inkscape"
   width="257"
   height="241"
   id="svg2"
   sodipodi:version="0.32"
   inkscape:version="0.46"
   version="1.0"
   sodipodi:docname="Movimiento Regionalista.svg"
   inkscape:output_extension="org.inkscape.output.svg.inkscape">
  <defs
     id="defs4">
    <inkscape:perspective
       sodipodi:type="inkscape:persp3d"
       inkscape:vp_x="0 : 526.18109 : 1"
       inkscape:vp_y="0 : 1000 : 0"
       inkscape:vp_z="744.09448 : 526.18109 : 1"
       inkscape:persp3d-origin="372.04724 : 350.78739 : 1"
       id="perspective10" />
    <inkscape:perspective
       id="perspective2390"
       inkscape:persp3d-origin="372.04724 : 350.78739 : 1"
       inkscape:vp_z="744.09448 : 526.18109 : 1"
       inkscape:vp_y="0 : 1000 : 0"
       inkscape:vp_x="0 : 526.18109 : 1"
       sodipodi:type="inkscape:persp3d" />
  </defs>
  <sodipodi:namedview
     id="base"
     pagecolor="#ffffff"
     bordercolor="#666666"
     borderopacity="1.0"
     inkscape:pageopacity="0.0"
     inkscape:pageshadow="2"
     inkscape:zoom="1.0121067"
     inkscape:cx="193.09674"
     inkscape:cy="52.007116"
     inkscape:document-units="px"
     inkscape:current-layer="layer1"
     showgrid="false"
     showguides="true"
     inkscape:guide-bbox="true"
     inkscape:window-width="1280"
     inkscape:window-height="744"
     inkscape:window-x="-4"
     inkscape:window-y="-4" />
  <metadata
     id="metadata7">
    <rdf:RDF>
      <cc:Work
         rdf:about="">
        <dc:format>image/svg+xml</dc:format>
        <dc:type
           rdf:resource="http://purl.org/dc/dcmitype/StillImage" />
      </cc:Work>
    </rdf:RDF>
  </metadata>
  <g
     inkscape:label="Capa 1"
     inkscape:groupmode="layer"
     id="layer1">
    <g
       id="g3181"
       transform="translate(-72.126786,-145.24161)">
      <path
         id="path2402"
         style="fill:#279716;fill-opacity:1;fill-rule:evenodd;stroke:#279716;stroke-width:16;stroke-linecap:butt;stroke-linejoin:miter;stroke-miterlimit:4;stroke-dasharray:none;stroke-opacity:1"
         d="M 194.45964,280.95377 C 186.61832,299.66432 162.41095,325.22896 159.15542,336.54642 C 149.38335,370.51787 194.8569,392.592 216.68978,360.5341 C 261.33815,380.95524 267.35685,348.0566 267.9235,344.69879 C 269.97957,332.51497 273.70266,310.04946 217.25562,272.34076 C 261.68146,297.15281 263.97988,309.68294 290.61622,306.61838 C 312.29845,304.1021 332.84488,280.75904 300.9292,251.00399 C 326.26216,205.37784 273.29808,196.45841 254.21998,206.90929 C 246.95372,210.88972 237.32978,215.13217 208.4699,251.00399 C 211.82457,234.19535 243.07698,210.63478 245.20369,190.51737 C 247.21198,171.52013 224.50533,135.63879 188.80661,171.09572 C 125.29913,141.75107 111.77308,216.97298 180.43925,256.44278 C 166.14269,254.26221 137.90014,225.95189 112.95289,228.41887 C 88.005639,230.88584 68.649234,254.94795 102.62281,284.05506 C 85.221146,321.53156 115.58965,337.06204 138.89746,330.68436 C 162.20527,324.3067 182.38761,299.95611 194.45964,280.95377 z"
         sodipodi:nodetypes="cscscscscsccscsc" />
      <path
         sodipodi:nodetypes="cscscscscsccscsc"
         d="M 195.11551,280.95377 C 187.27418,299.66432 163.06682,325.22896 159.81129,336.54642 C 150.03922,370.51787 195.51277,392.592 217.34565,360.5341 C 261.99402,380.95524 268.01272,348.0566 268.57936,344.69879 C 270.63544,332.51497 274.35853,310.04946 217.91148,272.34076 C 262.33733,297.15281 264.63575,309.68294 291.27209,306.61838 C 312.95431,304.1021 333.50075,280.75904 301.58507,251.00399 C 326.91803,205.37784 273.95394,196.45841 254.87584,206.90929 C 247.60958,210.88972 237.98565,215.13217 209.12576,251.00399 C 212.48043,234.19535 243.73284,210.63478 245.85956,190.51737 C 247.86785,171.52013 225.1612,135.63879 189.46248,171.09572 C 125.955,141.75107 112.42895,216.97298 181.09511,256.44278 C 166.79855,254.26221 138.556,225.95189 113.60876,228.41887 C 88.661507,230.88584 69.305101,254.94795 103.27868,284.05506 C 85.877013,321.53156 116.24551,337.06204 139.55332,330.68436 C 162.86113,324.3067 183.04347,299.95611 195.11551,280.95377 z"
         style="fill:#ffffff;fill-opacity:1;fill-rule:evenodd;stroke:none;stroke-width:1px;stroke-linecap:butt;stroke-linejoin:miter;stroke-opacity:1"
         id="path3177" />
    </g>
  </g>
</svg>
