<?xml version="1.0" encoding="UTF-8"?>
<!-- (c) Carrd Inc. All rights reserved. All logos and trademarks are property of their respective owners. -->
<svg xmlns="http://www.w3.org/2000/svg" version="1.1" xmlns:xlink="http://www.w3.org/1999/xlink" viewBox="0 0 40 40" display="none" width="0" height="0">
	<symbol id="document-alt" viewBox="0 0 40 40"><path d="M31.8,11.4c0.3,0.3,0.6,0.7,0.8,1.3s0.3,1,0.3,1.5v19.1c0,0.4-0.2,0.8-0.5,1.1c-0.3,0.3-0.7,0.5-1.1,0.5H9.1 c-0.4,0-0.8-0.2-1.1-0.5c-0.3-0.3-0.5-0.7-0.5-1.1V6.7c0-0.4,0.2-0.8,0.5-1.1c0.3-0.3,0.7-0.5,1.1-0.5h14.9c0.4,0,0.9,0.1,1.5,0.3 c0.5,0.2,1,0.5,1.3,0.8L31.8,11.4z M24.5,7.4v6.2h6.2c-0.1-0.3-0.2-0.5-0.4-0.7l-5.2-5.2C25,7.6,24.8,7.5,24.5,7.4z M30.8,32.7v-17 h-6.9c-0.4,0-0.8-0.2-1.1-0.5c-0.3-0.3-0.5-0.7-0.5-1.1V7.3H9.6v25.5L30.8,32.7L30.8,32.7z"/></symbol>
	<symbol id="email" viewBox="0 0 40 40"><path d="M37.3,15.3v15.3c0,0.8-0.3,1.6-0.9,2.2c-0.6,0.6-1.4,0.9-2.2,0.9H5.8c-0.8,0-1.6-0.3-2.2-0.9s-0.9-1.4-0.9-2.2V15.3 c0.5,0.6,1.2,1.1,2,1.7c4.7,3.1,7.9,5.4,9.6,6.7c0.7,0.5,1.4,0.9,1.8,1.2c0.4,0.3,1,0.6,1.9,0.9c0.7,0.3,1.5,0.5,2.1,0.5l0,0 c0.6,0,1.4-0.2,2.1-0.5c0.7-0.3,1.4-0.6,1.9-0.9c0.4-0.3,1-0.7,1.8-1.2c2.2-1.6,5.4-3.8,9.6-6.7C36.1,16.5,36.7,15.9,37.3,15.3 L37.3,15.3z M37.3,9.6c0,1-0.3,2-0.9,2.9c-0.6,0.9-1.5,1.8-2.4,2.4c-4.9,3.3-7.9,5.4-9,6.2c-0.1,0.1-0.4,0.3-0.8,0.6 c-0.4,0.3-0.7,0.5-1,0.7c-0.3,0.2-0.6,0.4-1,0.6c-0.4,0.2-0.7,0.4-1.1,0.5c-0.4,0.1-0.6,0.2-0.9,0.2l0,0c-0.3,0-0.6-0.1-0.9-0.2 c-0.3-0.1-0.7-0.3-1.1-0.5c-0.4-0.2-0.7-0.4-1-0.6c-0.3-0.2-0.6-0.4-1-0.7c-0.4-0.3-0.7-0.5-0.8-0.6c-1.1-0.8-2.8-2-5.1-3.5 c-2.3-1.6-3.3-2.4-3.7-2.7c-0.8-0.5-1.6-1.2-2.3-2.2s-1-1.9-1-2.6c0-1,0.3-1.9,0.8-2.5c0.5-0.6,1.2-1,2.3-1h28.4 c0.8,0,1.6,0.3,2.2,0.9C37.1,8.1,37.3,8.8,37.3,9.6L37.3,9.6z"/></symbol>
	<symbol id="linkedin" viewBox="0 0 40 40"><path d="M12.1,13.8v19.1H5.7V13.8C5.7,13.8,12.1,13.8,12.1,13.8z M12.5,7.9c0,0.9-0.3,1.7-1,2.4c-0.7,0.6-1.5,0.9-2.6,0.9h0 c-1.1,0-1.9-0.3-2.5-0.9c-0.6-0.6-1-1.4-1-2.4c0-1,0.3-1.7,1-2.4S7.9,4.6,9,4.6s1.9,0.3,2.6,0.9S12.5,6.9,12.5,7.9z M35,22v11h-6.4 V22.7c0-1.4-0.3-2.4-0.8-3.2c-0.5-0.8-1.3-1.1-2.4-1.1c-0.8,0-1.5,0.2-2,0.7c-0.5,0.4-1,1-1.2,1.7c-0.1,0.4-0.2,0.9-0.2,1.6v10.7 h-6.4c0-5.1,0-9.3,0-12.5s0-5.1,0-5.7l0-0.9H22v2.8h0c0.3-0.4,0.5-0.8,0.8-1.1c0.3-0.3,0.6-0.6,1.1-1c0.5-0.4,1-0.6,1.7-0.8 c0.7-0.2,1.4-0.3,2.2-0.3c2.2,0,4,0.7,5.3,2.2C34.4,17,35,19.1,35,22L35,22z"/></symbol>
	<symbol id="phone" viewBox="0 0 40 40"><path d="M34.8,28.8c0,0.4-0.1,0.8-0.2,1.5c-0.1,0.6-0.2,1.1-0.5,1.4c-0.4,0.7-1.2,1.4-2.6,2.2C30.2,34.7,29,35,27.7,35 c-0.4,0-0.7,0-1.1-0.1c-0.4,0-0.7-0.1-1.2-0.2c-0.5-0.1-0.8-0.2-0.9-0.4c-0.2-0.1-0.6-0.2-1.2-0.5c-0.6-0.2-0.9-0.4-1.1-0.4 c-1.4-0.5-2.6-1.1-3.6-1.8c-1.8-1.1-3.6-2.6-5.5-4.4c-1.9-1.9-3.4-3.7-4.4-5.5C8,20.8,7.4,19.5,7,18.2c0-0.1-0.1-0.5-0.4-1.1 C6.4,16.5,6,16.2,6,16c-0.1-0.2-0.2-0.6-0.4-0.9c-0.1-0.5-0.2-0.8-0.2-1.2s-0.1-0.7-0.1-1.1c0-1.3,0.4-2.6,1.1-3.9 c0.8-1.5,1.5-2.5,2.2-2.7C9,6.1,9.4,5.9,10,5.8c0.6-0.1,1.1-0.2,1.5-0.2c0.2,0,0.4,0,0.5,0.1c0.2,0.1,0.6,0.6,1.1,1.5 c0.1,0.2,0.4,0.6,0.6,1.2c0.2,0.5,0.5,0.9,0.7,1.3c0.2,0.4,0.5,0.8,0.7,1.2c0,0,0.1,0.2,0.4,0.5c0.2,0.2,0.4,0.6,0.5,0.7 c0.1,0.2,0.1,0.4,0.1,0.6c0,0.2-0.2,0.6-0.6,1.1c-0.4,0.5-0.8,0.8-1.3,1.2s-0.9,0.7-1.3,1.1c-0.4,0.4-0.6,0.7-0.6,0.9 c0,0.1,0,0.2,0.1,0.5c0.1,0.2,0.1,0.4,0.2,0.5c0,0.1,0.1,0.2,0.4,0.5c0.1,0.2,0.2,0.4,0.2,0.4c1.1,1.9,2.2,3.5,3.6,4.9 c1.4,1.4,3,2.6,4.9,3.6c0,0,0.1,0.1,0.4,0.2c0.2,0.1,0.4,0.2,0.5,0.4c0.1,0,0.2,0.1,0.5,0.2c0.2,0.1,0.4,0.1,0.5,0.1 c0.2,0,0.6-0.2,0.9-0.6c0.4-0.4,0.7-0.8,1.1-1.3c0.4-0.5,0.7-0.9,1.2-1.3c0.5-0.4,0.8-0.6,1.1-0.6c0.2,0,0.4,0,0.6,0.1 c0.2,0.1,0.5,0.2,0.7,0.5c0.4,0.2,0.5,0.4,0.5,0.4c0.4,0.2,0.7,0.5,1.2,0.7c0.4,0.2,0.8,0.5,1.3,0.7c0.5,0.2,0.8,0.5,1.2,0.6 c0.9,0.5,1.5,0.8,1.6,1.1C34.8,28.5,34.8,28.6,34.8,28.8L34.8,28.8z"/></symbol>
	<symbol id="star" viewBox="0 0 40 40"><path d="M37.7,14l-11.4-1.7L21.1,2c-0.3-0.6-0.7-0.9-1.1-0.9S19.2,1.4,18.9,2l-5.1,10.4L2.3,14c-0.8,0.1-1.3,0.5-1.3,1 c0,0.3,0.2,0.7,0.6,1.1l8.3,8.1L8,35.6c0,0.2,0,0.4,0,0.5c0,0.3,0.1,0.6,0.2,0.8c0.2,0.2,0.4,0.3,0.7,0.3c0.3,0,0.6-0.1,0.9-0.3 L20,31.5l10.2,5.4c0.3,0.2,0.6,0.3,0.9,0.3c0.3,0,0.5-0.1,0.7-0.3c0.2-0.2,0.2-0.5,0.2-0.8c0-0.2,0-0.3,0-0.5l-2-11.4l8.3-8.1 c0.4-0.4,0.6-0.8,0.6-1.1C38.9,14.5,38.5,14.2,37.7,14z"/></symbol>
</svg>
