

<svg xmlns="http://www.w3.org/2000/svg" style="display:none">
  
  <symbol id="icon-mail" viewBox="0 0 24 24">
    <path d="M20 4H4c-1.1 0-2 .9-2 2v12c0 1.1.9 2 2 2h16c1.1 0 2-.9 2-2V6c0-1.1-.9-2-2-2zm0 4l-8 5-8-5V6l8 5 8-5v2z"></path>
  </symbol>
  
  <symbol id="icon-linkedin" viewBox="0 0 24 24">
    <path d="M19 3a2 2 0 012 2v14a2 2 0 01-2 2H5a2 2 0 01-2-2V5a2 2 0 012-2h14m-.5 15.5v-5.3a3.26 3.26 0 00-3.26-3.26c-.85 0-1.84.52-2.32 1.3v-1.11h-2.79v8.37h2.79v-4.93c0-.77.62-1.4 1.39-1.4a1.4 1.4 0 011.4 1.4v4.93h2.79M6.88 8.56a1.68 1.68 0 001.68-1.68c0-.93-.75-1.69-1.68-1.69a1.69 1.69 0 00-1.69 1.69c0 .93.76 1.68 1.69 1.68m1.39 9.94v-8.37H5.5v8.37h2.77z"></path>
  </symbol>
  
  <symbol id="icon-github" viewBox="0 0 24 24">
    <path d="M12 2A10 10 0 002 12c0 4.42 2.87 8.17 6.84 9.5.5.08.66-.23.66-.5v-1.69c-2.77.6-3.36-1.34-3.36-1.34-.46-1.16-1.11-1.47-1.11-1.47-.91-.62.07-.6.07-.6 1 .07 1.53 1.03 1.53 1.03.87 1.52 2.34 1.07 2.91.83.09-.65.35-1.09.63-1.34-2.22-.25-4.55-1.11-4.55-4.92 0-1.11.38-2 1.03-2.71-.1-.25-.45-1.29.1-2.64 0 0 .84-.27 2.75 1.02.79-.22 1.65-.33 2.5-.33.85 0 1.71.11 2.5.33 1.91-1.29 2.75-1.02 2.75-1.02.55 1.35.2 2.39.1 2.64.65.71 1.03 1.6 1.03 2.71 0 3.82-2.34 4.66-4.57 4.91.36.31.69.92.69 1.85V21c0 .27.16.59.67.5C19.14 20.16 22 16.42 22 12A10 10 0 0012 2z"></path>
  </symbol>
  
  <symbol id="icon-file" viewBox="0 0 24 24">
    <path d="M14 2H6a2 2 0 00-2 2v16a2 2 0 002 2h12a2 2 0 002-2V8l-6-6zm-1 1.5L18.5 9H13V3.5zM6 20V4h5v7h7v9H6z"></path>
  </symbol>
  
  <symbol id="icon-moon" viewBox="0 0 24 24" fill="none" stroke="currentColor" stroke-width="2" stroke-linecap="round" stroke-linejoin="round">
    <path d="M21 12.79A9 9 0 1 1 11.21 3 7 7 0 0 0 21 12.79z"></path>
  </symbol>
  
  <symbol id="icon-sun" viewBox="0 0 24 24" fill="none" stroke="currentColor" stroke-width="2" stroke-linecap="round" stroke-linejoin="round">
    <circle cx="12" cy="12" r="4"></circle>
    <line x1="12" y1="2" x2="12" y2="4"></line>
    <line x1="12" y1="20" x2="12" y2="22"></line>
    <line x1="2" y1="12" x2="4" y2="12"></line>
    <line x1="20" y1="12" x2="22" y2="12"></line>
    <line x1="4.93" y1="4.93" x2="6.34" y2="6.34"></line>
    <line x1="17.66" y1="17.66" x2="19.07" y2="19.07"></line>
    <line x1="4.93" y1="19.07" x2="6.34" y2="17.66"></line>
    <line x1="17.66" y1="6.34" x2="19.07" y2="4.93"></line>
  </symbol>
</svg>